<?xml version="1.0" encoding="UTF-8"?>
<svg id="Layer_2" data-name="Layer 2" xmlns="http://www.w3.org/2000/svg" viewBox="0 0 133.73 317.01">
  <defs>
    <style>
      .cls-1 {
        fill: #fff;
      }

      .cls-2 {
        fill: #231f20;
      }
    </style>
  </defs>
  <g id="Layer_1-2" data-name="Layer 1">
    <circle class="cls-2" cx="66.86" cy="250.15" r="66.86"/>
    <circle class="cls-1" cx="67.17" cy="250.15" r="57.89"/>
    <circle class="cls-2" cx="66.64" cy="250.15" r="49.19"/>
    <circle class="cls-1" cx="66.86" cy="250.15" r="42.59"/>
    <path class="cls-2" d="m57,0h19.24c.21,0,1.86.08,2.89,1.48.75,1.03.69,2.13.67,2.44v35.81c-1.12.89-2.55,2.23-3.85,4.14-1.96,2.89-2.67,5.7-2.96,7.4.49,83.06.99,166.12,1.48,249.18h-15.98l1.48-250.37c-.14-1.15-.6-3.54-2.37-5.92-1.46-1.96-3.16-3.03-4.14-3.55V4.81c-.05-.32-.25-1.66.59-2.96,1.01-1.56,2.71-1.82,2.96-1.85Z"/>
    <rect class="cls-1" x="63.8" y="202.05" width="5.55" height="83.31"/>
    <rect class="cls-1" x="63.8" y="195.35" width="5.55" height="4"/>
    <rect class="cls-2" x="51.67" y="264.5" width="29.45" height="6.66" rx="3.33" ry="3.33"/>
    <path class="cls-2" d="m54.04,291.1c-.01-.18-.18-3.01,1.41-4.75,1.31-1.44,2.81-1.02,3.03-.95h18.05c.33.03.94.16,1.55.74,1.16,1.1,1.37,2.94,1.41,3.27v21.11h-25.45v-19.42Z"/>
    <circle class="cls-1" cx="60.25" cy="11.1" r="3.63"/>
    <circle class="cls-1" cx="60.25" cy="34.16" r="3.63"/>
    <circle class="cls-1" cx="60.25" cy="23.24" r="3.63"/>
    <circle class="cls-1" cx="72.68" cy="11.1" r="3.63"/>
    <circle class="cls-1" cx="72.68" cy="34.16" r="3.63"/>
    <circle class="cls-1" cx="72.68" cy="23.24" r="3.63"/>
    <path class="cls-2" d="m80.21,10.28c1.03-1.62,2.91-2.27,4.15-1.78,1.54.61,1.5,2.76,1.49,3.11,0,.47-.05,2.53-1.66,3.11-1.21.43-2.87-.13-3.82-1.48-.44.49-.89.99-1.33,1.48v-6.07c.39.54.77,1.09,1.16,1.63Z"/>
    <path class="cls-2" d="m80.21,21.55c1.03-1.62,2.91-2.27,4.15-1.78,1.54.61,1.5,2.76,1.49,3.11,0,.47-.05,2.53-1.66,3.11-1.21.43-2.87-.13-3.82-1.48-.44.49-.89.99-1.33,1.48v-6.07c.39.54.77,1.09,1.16,1.63Z"/>
    <path class="cls-2" d="m79.59,33.2c1.03-1.62,2.91-2.27,4.15-1.78,1.54.61,1.5,2.76,1.49,3.11,0,.47-.05,2.53-1.66,3.11-1.21.43-2.87-.13-3.82-1.48-.44.49-.89.99-1.33,1.48v-6.07c.39.54.77,1.09,1.16,1.63Z"/>
    <path class="cls-2" d="m53.15,10.28c-1.03-1.62-2.91-2.27-4.15-1.78-1.54.61-1.5,2.76-1.49,3.11,0,.47.05,2.53,1.66,3.11,1.21.43,2.87-.13,3.82-1.48.44.49.89.99,1.33,1.48v-6.07c-.39.54-.77,1.09-1.16,1.63Z"/>
    <path class="cls-2" d="m53.15,21.55c-1.03-1.62-2.91-2.27-4.15-1.78-1.54.61-1.5,2.76-1.49,3.11,0,.47.05,2.53,1.66,3.11,1.21.43,2.87-.13,3.82-1.48.44.49.89.99,1.33,1.48v-6.07c-.39.54-.77,1.09-1.16,1.63Z"/>
    <path class="cls-2" d="m53.15,33.2c-1.03-1.62-2.91-2.27-4.15-1.78-1.54.61-1.5,2.76-1.49,3.11,0,.47.05,2.53,1.66,3.11,1.21.43,2.87-.13,3.82-1.48.44.49.89.99,1.33,1.48v-6.07c-.39.54-.77,1.09-1.16,1.63Z"/>
  </g>
</svg>