<?xml version="1.0" encoding="UTF-8"?>
<svg id="Layer_2" data-name="Layer 2" xmlns="http://www.w3.org/2000/svg" viewBox="0 0 264.04 284.76">
  <defs>
    <style>
      .cls-1 {
        fill: #231f20;
      }
    </style>
  </defs>
  <g id="Drum">
    <g id="Drum-2" data-name="Drum">
      <path class="cls-1" d="m.02,146.52v68.31c.83,2.66,2.05,5.64,3.87,8.7,6.49,10.89,16.49,15.91,21.4,17.94v-78.17L.02,146.52Z"/>
      <path class="cls-1" d="m37.55,167.02v78.55c4.87,2.6,11.39,5.49,19.38,7.55,9.67,2.48,18.14,2.89,24.33,2.7v-79.24c-7.33-.57-15.76-1.73-24.95-3.9-6.96-1.65-13.24-3.62-18.77-5.66Z"/>
      <path class="cls-1" d="m91.51,177.26v81.29h46.45v-81.29c-5.26,2.06-14.38,4.83-25.89,4.35-8.79-.37-15.86-2.5-20.56-4.35Z"/>
      <path class="cls-1" d="m148.25,177.26v81.29c7.95-.23,18.78-1.52,30.71-6.05,5.55-2.11,10.34-4.54,14.38-6.93v-78.55c-5.31,2.79-12.77,6.03-22.08,8.12-9.12,2.05-17.08,2.34-23,2.12Z"/>
      <path class="cls-1" d="m203.57,163.3v78.17c3.88-1.76,8.98-4.56,14.21-9.01,6.09-5.18,10.02-10.62,12.43-14.56v-71.38c-2.16,2.95-6.12,7.55-12.43,11.36-5.57,3.36-10.79,4.77-14.21,5.42Z"/>
      <path class="cls-1" d="m.02,229.18v12.3c4.09,4.85,10.32,11.43,18.98,17.81,23.46,17.3,47.41,20.41,67.8,22.81,26.77,3.15,72.12,8.47,115.27-17.88,12.79-7.81,22.08-16.38,28.15-22.74v-12.3c-13.88,11.7-35.28,26.24-64.21,34.56-21.04,6.05-38.12,6.51-48.67,6.73-17.2.35-41.11.61-68.75-10.26-11.46-4.51-29.87-13.41-48.56-31.03Z"/>
      <path class="cls-1" d="m99.06,104.17l14.11-16.39c-32.02-2.76-56.15,3.21-71.07,8.46C27.08,101.53.82,110.76.02,125.35c-.73,13.3,20.05,24.26,31.62,30.36,31.93,16.84,62.88,16.61,89.97,16.09,12.53-.24,38.22-1.52,68.44-11.45,37.56-12.34,39.83-24.14,40.17-26.8.9-7.1-3.71-14.26-5.65-17.27-6.06-9.4-14.71-13.42-18.26-14.83-6.38,3.64-12.75,7.29-19.13,10.93,20.11,7.63,24.04,13.48,23.91,17.42-.48,14.44-56.4,28.17-107.24,24.93-39.97-2.55-86.66-16.21-86.07-28.01.23-4.46,7.49-14.25,81.29-22.54Z"/>
      <path class="cls-1" d="m139.19,87.78l-12.33,14.93,27.12,3.39c6.88-4.52,13.77-9.04,20.65-13.56-11.81-1.59-23.63-3.17-35.44-4.76Z"/>
      <path class="cls-1" d="m191.36,13.52c-28.49,35.18-56.97,70.35-85.46,105.53.8,4.76-1.2,9.13-4.62,10.74-.3.14-3.83,1.73-7.09-.26-2.1-1.29-3.28-3.57-3.39-5.55-.22-3.9,3.61-8.19,9.68-9.46,26.74-37.01,53.47-74.02,80.21-111.03,3.06-4.2,8.9-4.45,11.82-1.55,2.82,2.81,2.74,8.41-1.15,11.59Z"/>
      <path class="cls-1" d="m258.31,62.11c-39.08,22.84-78.15,45.68-117.23,68.52-.93,4.73-4.35,8.12-8.12,8.41-.34.03-4.2.27-6.54-2.75-1.51-1.95-1.8-4.5-1.21-6.39,1.17-3.73,6.27-6.38,12.4-5.43,38.09-25.18,76.18-50.35,114.27-75.53,4.35-2.85,9.9-1.01,11.6,2.73,1.65,3.62-.41,8.83-5.17,10.44Z"/>
    </g>
  </g>
</svg>