<?xml version="1.0" encoding="UTF-8"?>
<svg id="Layer_2" data-name="Layer 2" xmlns="http://www.w3.org/2000/svg" viewBox="0 0 252.58 103.1">
  <defs>
    <style>
      .cls-1 {
        fill: #fff;
      }

      .cls-2 {
        fill: none;
        stroke: #fff;
        stroke-miterlimit: 10;
        stroke-width: 2px;
      }

      .cls-3 {
        fill: #231f20;
      }

      .cls-4 {
        fill: #414042;
      }
    </style>
  </defs>
  <g id="Layer_1-2" data-name="Layer 1">
    <path class="cls-3" d="m0,87.7c1.74,4.74,3.48,9.48,5.22,14.22,2.78.79,7.82,1.8,13.93.68,8.97-1.65,14.61-6.9,16.64-9,57.46-23,115.43-44.47,173.93-64.43,12.77-4.36,25.56-8.64,38.38-12.85.52-.14,2.59-.73,3.74-2.72.94-1.64.76-3.24.68-3.74-.29-1.31-.82-3.03-1.79-4.91-.97-1.86-2.07-3.27-2.96-4.26-.91-.34-2.27-.72-3.93-.69-3.35.06-5.72,1.7-6.6,2.39-11.85,4.19-23.7,8.36-35.55,12.52-57.52,20.19-115.15,40.08-172.88,59.66-2.29-.46-8.99-1.49-16.44,1.87-7.54,3.41-11.21,9.24-12.36,11.26Z"/>
    <circle class="cls-1" cx="116.92" cy="52.13" r="3.32"/>
    <circle class="cls-1" cx="132.34" cy="46.81" r="3.32"/>
    <circle class="cls-1" cx="149.49" cy="40.86" r="3.03"/>
    <circle class="cls-1" cx="166.73" cy="34.22" r="3.32"/>
    <circle class="cls-1" cx="199.81" cy="23.73" r="3.32"/>
    <circle class="cls-1" cx="185.7" cy="27.69" r="2.55"/>
    <circle class="cls-1" cx="216.02" cy="22.01" r="2.39"/>
    <path class="cls-4" d="m32.15,77.8l14.25-5.29c2.44-.39,4.83.96,5.75,3.22.94,2.33.08,5.06-2.07,6.44-4.83,2.07-9.66,4.14-14.48,6.21l-3.45-10.58Z"/>
    <polygon class="cls-1" points="37.61 77.11 40.23 85.92 35.6 87.58 32.7 78.42 37.61 77.11"/>
    <path class="cls-2" d="m90.87,53.38c1.31,1.88,2.97,4.71,4.13,8.43,1.03,3.3,1.33,6.22,1.38,8.37,1.42-.6,2.85-1.21,4.27-1.81.01-2.21-.25-5.66-1.74-9.54-1.17-3.04-2.7-5.32-3.92-6.86-1.37.47-2.74.94-4.12,1.41Z"/>
    <path class="cls-2" d="m220.53,9.16c.95.86,3.09,3.01,4.14,6.55,1.08,3.64.4,6.7.06,7.93.71-.3,1.42-.61,2.13-.91.26-1.34.67-4.39-.57-7.93-1.24-3.54-3.45-5.67-4.48-6.55-.42.31-.84.61-1.26.92Z"/>
  </g>
</svg>