<?xml version="1.0" encoding="UTF-8"?>
<svg id="Layer_2" data-name="Layer 2" xmlns="http://www.w3.org/2000/svg" viewBox="0 0 102.71 211.26">
  <defs>
    <style>
      .cls-1 {
        fill: #fff;
      }

      .cls-2 {
        stroke: #231f20;
        stroke-miterlimit: 10;
        stroke-width: 2px;
      }

      .cls-2, .cls-3 {
        fill: #231f20;
      }
    </style>
  </defs>
  <g id="Layer_1-2" data-name="Layer 1">
    <path class="cls-3" d="m5.45,0l5.03,23.46,3.77,161.31c-.23,1.2-.78,3.29-2.3,5.45-1.38,1.96-2.98,3.14-3.98,3.77-4.53,1.27-7.79,4.62-7.96,7.96-.23,4.57,5.26,10.04,12.99,9.22,12.71-.28,25.42-.56,38.13-.84,6.5,1.25,11.68-3.33,11.73-7.54.04-3.37-3.19-7.05-7.96-7.96,15.5-44.41,31.01-88.83,46.51-133.24,2.65-4.99,1.13-11.16-3.35-14.25-4.2-2.89-10.03-2.4-13.83,1.26-4.46,5.31-10.4,11.12-14.66,9.64-2.36-.82-3.08-3.54-5.03-10.06-6.57-21.94-8.93-26.58-11.31-29.96-1.91-2.71-5.1-6.4-10.47-9.85-5.31-2.09-10.61-4.19-15.92-6.28l-2.51-2.09H5.45Z"/>
    <path class="cls-1" d="m20.96,33l4.09,123.5,4.09,2.51,59.08-95.53c.13-.41-.04-.83-.37-1-.36-.18-.74.04-.76.05-.95,1.74-2.56,4.19-5.18,6.48-2,1.75-7.24,6.34-13.91,5.61-5.86-.64-10.98-5.2-13.41-11.47-5.66-9.43-11.31-18.85-16.97-28.28-.68-.71-3.95-3.95-9.11-4.09-3.78-.1-6.52,1.52-7.54,2.2Z"/>
    <line class="cls-2" x1="25.99" y1="31.11" x2="29.44" y2="159.64"/>
    <line class="cls-2" x1="30.24" y1="27.68" x2="35.49" y2="156.14"/>
    <line class="cls-2" x1="35.49" y1="27.68" x2="40.75" y2="156.14"/>
    <line class="cls-2" x1="41.32" y1="32.7" x2="46.58" y2="161.17"/>
    <line class="cls-2" x1="45.95" y1="34.26" x2="51.21" y2="162.73"/>
  </g>
</svg>