<?xml version="1.0" encoding="UTF-8"?>
<svg id="Layer_2" data-name="Layer 2" xmlns="http://www.w3.org/2000/svg" viewBox="0 0 61.3 220.69">
  <defs>
    <style>
      .cls-1 {
        fill: #bcbec0;
        opacity: .38;
      }

      .cls-2 {
        stroke: #fff;
        stroke-miterlimit: 10;
        stroke-width: 2px;
      }

      .cls-2, .cls-3 {
        fill: #231f20;
      }
    </style>
  </defs>
  <g id="Layer_1-2" data-name="Layer 1">
    <rect class="cls-3" x=".6" y="45.91" width="59.17" height="2.54"/>
    <rect class="cls-3" x="8.94" y="0" width="40.59" height="78.06" rx="20.29" ry="20.29"/>
    <rect class="cls-1" x="8.94" y="54.65" width="40.59" height="3.12"/>
    <path class="cls-3" d="m2.15,47.32c.23,6.48.47,12.96.7,19.44.28,4.49,1.59,14.86,9.3,23.53,2.45,2.75,6.58,7.4,13.38,8.73,4.58.9,8.53-.06,9.86-.42,3.57-.99,6.13-2.67,7.61-3.8,2.05-1.88,4.27-4.29,6.34-7.33,5.84-8.57,7.15-17.33,7.47-22.26.19-6.1.38-12.21.56-18.31-.85.09-1.69.19-2.54.28-.05,6.67-.09,13.34-.14,20-.53,4.31-2.01,10.68-6.34,16.91-1.89,2.72-7.71,11.1-16.34,12.24-3.51.46-6.77-.37-6.9-.4-1.02-.27-3.54-1.04-6.62-3.38-9.61-7.32-12.88-21.05-13.05-21.83-1.04-4.61-1.11-8.54-1.18-11.84-.09-4.75.29-8.75.7-11.69l-2.82.14Z"/>
    <rect class="cls-2" x="27.43" y="94.37" width="5.07" height="97.21" rx="1.98" ry="1.98"/>
    <path class="cls-3" d="m.1,201.44c1.51-8.04,19.02-11.69,31.56-11.27,11.45.38,28.52,4.49,29.58,12.4.57,4.24-3.67,8.04-5.71,9.86-14.2,12.71-43.17,10.17-52.97-3.66-1.21-1.7-3.02-4.35-2.47-7.33Z"/>
  </g>
</svg>