<?xml version="1.0" encoding="UTF-8"?>
<svg id="Layer_2" data-name="Layer 2" xmlns="http://www.w3.org/2000/svg" viewBox="0 0 321.73 302.11">
  <defs>
    <style>
      .cls-1 {
        fill: #fff;
      }

      .cls-2 {
        stroke: #fff;
        stroke-miterlimit: 10;
        stroke-width: 9px;
      }

      .cls-2, .cls-3 {
        fill: #231f20;
      }
    </style>
  </defs>
  <g id="Layer_1-2" data-name="Layer 1">
    <path class="cls-3" d="m11.53.52c.99.98,6.27,6.02,14.63,6.02S39.78,1.51,40.78.52v296.38c-1.61,1.33-6.17,4.73-12.9,5.16-8.93.58-15.07-4.49-16.35-5.59V.52Z"/>
    <path class="cls-3" d="m43.07,0c.91.88,5.78,5.39,13.48,5.39s12.56-4.51,13.48-5.39v265.15c-1.48,1.19-5.69,4.23-11.89,4.62-8.23.52-13.89-4.02-15.06-5V0Z"/>
    <path class="cls-3" d="m72.52,0c.86.81,5.41,4.97,12.62,4.97s11.76-4.16,12.62-4.97v244.57c-1.39,1.1-5.32,3.9-11.13,4.26-7.71.48-13-3.7-14.1-4.61V0Z"/>
    <path class="cls-3" d="m100.23,0c.82.72,5.17,4.42,12.04,4.42s11.23-3.69,12.04-4.42v217.38c-1.33.97-5.08,3.47-10.63,3.79-7.36.42-12.41-3.29-13.46-4.1V0Z"/>
    <path class="cls-3" d="m127.64,0c.77.66,4.89,4.06,11.4,4.06s10.63-3.39,11.4-4.06v199.59c-1.26.89-4.81,3.18-10.06,3.48-6.96.39-11.75-3.02-12.74-3.77V0Z"/>
    <path class="cls-3" d="m152.82,0c.74.62,4.71,3.78,10.97,3.78s10.22-3.16,10.97-3.78v186.1c-1.21.83-4.63,2.97-9.68,3.24-6.7.36-11.3-2.82-12.26-3.51V0Z"/>
    <path class="cls-3" d="m177.34,0c.73.59,4.61,3.59,10.75,3.59s10.02-3.01,10.75-3.59v176.8c-1.18.79-4.54,2.82-9.49,3.08-6.57.34-11.08-2.68-12.02-3.34V0Z"/>
    <path class="cls-3" d="m201.03,0c.72.55,4.52,3.33,10.54,3.33s9.82-2.79,10.54-3.33v164.11c-1.16.74-4.45,2.62-9.3,2.86-6.44.32-10.86-2.49-11.78-3.1V0Z"/>
    <path class="cls-3" d="m224.42,0c.66.5,4.15,3.07,9.68,3.07s9.02-2.57,9.68-3.07v150.99c-1.07.68-4.08,2.41-8.54,2.63-5.91.29-9.97-2.29-10.82-2.85V0Z"/>
    <path class="cls-3" d="m246.36,0c.64.47,4.03,2.85,9.39,2.85s8.75-2.38,9.39-2.85v140.02c-1.03.63-3.96,2.23-8.29,2.44-5.74.27-9.68-2.12-10.5-2.64V0Z"/>
    <path class="cls-3" d="m266.9,0c.64.43,4.03,2.66,9.39,2.66s8.75-2.22,9.39-2.66v130.72c-1.03.59-3.96,2.08-8.29,2.28-5.74.25-9.68-1.98-10.5-2.47V0Z"/>
    <path class="cls-3" d="m287.83,1.43c.59.39,3.75,2.41,8.75,2.41s8.15-2.02,8.75-2.41v118.6c-.96.53-3.69,1.89-7.72,2.07-5.34.23-9.01-1.8-9.78-2.24V1.43Z"/>
    <path class="cls-3" d="m11.53.52c.99.98,6.27,6.02,14.63,6.02S39.78,1.51,40.78.52v296.38c-1.61,1.33-6.17,4.73-12.9,5.16-8.93.58-15.07-4.49-16.35-5.59V.52Z"/>
    <path class="cls-3" d="m11.53.52c.99.98,6.27,6.02,14.63,6.02S39.78,1.51,40.78.52v296.38c-1.61,1.33-6.17,4.73-12.9,5.16-8.93.58-15.07-4.49-16.35-5.59V.52Z"/>
    <rect class="cls-2" x="4.5" y="51.86" width="312.73" height="48.18" rx="22.96" ry="22.96"/>
    <rect class="cls-1" x="20.02" y="61.55" width="283.15" height="7.74" rx="3.87" ry="3.87" transform="translate(-.46 1.15) rotate(-.41)"/>
  </g>
</svg>