<?xml version="1.0" encoding="UTF-8"?>
<svg id="Layer_2" data-name="Layer 2" xmlns="http://www.w3.org/2000/svg" viewBox="0 0 261.64 332.86">
  <defs>
    <style>
      .cls-1 {
        fill: #fff;
        stroke: #231f20;
        stroke-miterlimit: 10;
      }

      .cls-2 {
        fill: #231f20;
      }
    </style>
  </defs>
  <g id="Layer_1-2" data-name="Layer 1">
    <path class="cls-2" d="m15.03,209.34c.84,6.7,1.37,14.11,1.34,22.13-.08,18.62-3.18,34.56-6.71,46.94-1.02,3.24-6.54,21.82,4.02,37.55,3.12,4.65,6.85,7.87,10.06,10.06,4.64,2.67,13.16,6.71,24.14,6.85,21.77.28,36.48-14.96,42.24-20.93,13.3-13.78,17.78-29.44,19.44-37.55,24.14-80.24,48.28-160.48,72.42-240.71.62-.38,1.76-.93,3.1-.75,1.66.22,2.72,1.44,3.43,2.29,2.92,3.48,4.38,5.22,5.26,7.08,3.21,6.87,12.42,13.91,14.85,15.77,3.46,2.64,12.14,8.27,27.67,8.47,8.45-4.88,16.89-9.76,25.34-14.64-13.19.28-23.63-1.76-30.62-3.66-7.77-2.1-12.36-3.35-17.52-7.18-5.19-3.86-8.73-9.14-15.61-19.56-3.39-5.12-6.03-9.51-7.85-12.63-1.23-1.79-5.63-7.74-12.74-8.72-9.32-1.28-19.97,6.44-23.47,19.44-22.13,57.66-44.25,115.33-66.38,172.99l-2.68-16.76c10.73-17.59,7.49-25.57,6.03-28.16-7.86-13.95-43.58-12.3-65.71,4.02-16.7,12.32-30.77,36.76-22.8,49.62,1.72,2.78,5.19,6.16,12.74,8.05Z"/>
    <path class="cls-1" d="m14.17,191.27c-4.05-6.92,10.61-24.28,25.36-33.59,14.78-9.32,36.58-14.93,41.13-8.23,4.34,6.39-7.34,23.45-20.49,32.98-16.89,12.24-41.77,16.07-46.01,8.84Z"/>
  </g>
</svg>