<?xml version="1.0" encoding="UTF-8"?>
<svg id="Layer_2" data-name="Layer 2" xmlns="http://www.w3.org/2000/svg" viewBox="0 0 216.7 202.49">
  <defs>
    <style>
      .cls-1 {
        stroke: #fff;
      }

      .cls-1, .cls-2 {
        fill: none;
      }

      .cls-1, .cls-2, .cls-3 {
        stroke-miterlimit: 10;
        stroke-width: 2px;
      }

      .cls-2, .cls-3 {
        stroke: #231f20;
      }

      .cls-3 {
        fill: #231f20;
      }
    </style>
  </defs>
  <g id="Layer_1-2" data-name="Layer 1">
    <path class="cls-3" d="m51.44,96.47c-3.59-.18-23.48-1.51-37.92-18.24C-4.16,57.74,1.87,32.16,2.48,29.75c1.44-3.83,4.77-11.13,12-17.76C21.91,5.17,29.71,2.5,33.68,1.43c20.54-2.64,40.64,7.06,50.88,24.48,11.18,19.01,8.54,43.67-6.72,60.48.73,1.35,2.17,4.49,1.92,8.64-.18,3.09-1.22,5.43-1.92,6.72,8.99,16.13,17.99,34.21,26.4,54.24,4.72,11.24,8.85,22.15,12.48,32.64-.03.72-.24,3.5-2.4,5.28-1.8,1.49-3.95,1.45-4.8,1.44-7.47-.11-15.36-13.44-15.36-13.44-12.04-20.32-30.65-69.59-32.64-74.88-1.33-.42-4.21-1.53-6.72-4.32-2.16-2.4-3.01-4.91-3.36-6.24Z"/>
    <path class="cls-1" d="m1.22,49.44c5.07-6.81,15.49-18.93,32.75-27.73,15.8-8.06,30.24-9.73,38.45-10.05"/>
    <path class="cls-2" d="m51.44,96.47c.63-6.18,4.76-11.45,10.56-13.44,5.45-1.87,11.54-.58,15.84,3.36"/>
    <path class="cls-2" d="m61.52,107.03c.09-.61.87-5.43,5.84-8.16,5.32-2.92,10.79-.9,11.32-.69"/>
    <path class="cls-3" d="m165.26,102.6c3.59-.18,23.48-1.51,37.92-18.24,17.68-20.49,11.65-46.07,11.04-48.48-1.44-3.83-4.77-11.13-12-17.76-7.43-6.81-15.23-9.49-19.2-10.56-20.54-2.64-40.64,7.06-50.88,24.48-11.18,19.01-8.54,43.67,6.72,60.48-.73,1.35-2.17,4.49-1.92,8.64.18,3.09,1.22,5.43,1.92,6.72-8.99,16.13-17.99,34.21-26.4,54.24-4.72,11.24-8.85,22.15-12.48,32.64.03.72.24,3.5,2.4,5.28,1.8,1.49,3.95,1.45,4.8,1.44,7.47-.11,15.36-13.44,15.36-13.44,12.04-20.32,30.65-69.59,32.64-74.88,1.33-.42,4.21-1.53,6.72-4.32,2.16-2.4,3.01-4.91,3.36-6.24Z"/>
    <path class="cls-1" d="m215.48,55.58c-5.07-6.81-15.49-18.93-32.75-27.73-15.8-8.06-30.24-9.73-38.45-10.05"/>
    <path class="cls-2" d="m165.26,102.6c-.63-6.18-4.76-11.45-10.56-13.44-5.45-1.87-11.54-.58-15.84,3.36"/>
    <path class="cls-2" d="m155.18,113.16c-.09-.61-.87-5.43-5.84-8.16-5.32-2.92-10.79-.9-11.32-.69"/>
  </g>
</svg>