<?xml version="1.0" encoding="UTF-8"?>
<svg id="Layer_2" data-name="Layer 2" xmlns="http://www.w3.org/2000/svg" viewBox="0 0 177.61 213.7">
  <defs>
    <style>
      .cls-1 {
        fill: #fff;
      }

      .cls-2 {
        stroke: #231f20;
      }

      .cls-2, .cls-3 {
        stroke-miterlimit: 10;
      }

      .cls-2, .cls-3, .cls-4 {
        fill: #231f20;
      }

      .cls-3 {
        stroke: #fff;
      }
    </style>
  </defs>
  <g id="Layer_1-2" data-name="Layer 1">
    <path class="cls-2" d="m.54,156.39c.14.49.92,3.07,3.6,4.56,2.53,1.41,4.98.85,5.52.72,20.56-32.88,41.12-65.76,61.68-98.64,1.4-6.56,3.37-7.61,4.38-7.8,4.86-.92,11.12,13.57,12.24,16.2,17.64,28.92,35.28,57.83,52.91,86.75.29.35,2.21,2.77,1.51,5.17-.82,2.77-4.95,4.83-9.6,3.36-38.96-.08-77.92-.16-116.88-.24-.35.29-2.34,1.95-2.6,4.88-.26,2.88,1.34,4.84,1.64,5.2h128.16c5.22.21,9.99-2.68,12-7.2,2.54-5.72-.68-11.07-.96-11.52-23.2-37.44-46.4-74.88-69.6-112.32-.35-.4-3.59-4.01-8.64-3.6-4.06.33-6.47,3.03-6.96,3.6C46.14,82.47,23.34,119.43.54,156.39Z"/>
    <path class="cls-2" d="m82.97,44.08c1.98-3.7,4.72-9.88,5.71-18,.96-7.87-.1-14.34-1.08-18.36-2.39-4.62-7.26-7.44-12.42-7.2-5.01.23-9.48,3.31-11.52,7.92-1.1,6.55-1.91,16.19,0,27.54,1.4,8.28,3.84,15.09,6.12,20.16-.22,4.24,2.62,7,4.68,6.84,1.72-.14,3.55-2.36,3.85-5.4-2.49-5.5-5.39-13.46-6.73-23.4-1.21-8.97-.76-16.67,0-22.32.57-1.96,2.32-3.34,4.32-3.42,2.12-.08,4.07,1.33,4.68,3.42.31,3.57.38,7.9-.18,12.78-.82,7.16-2.73,13.02-4.5,17.28,2.36.72,4.71,1.44,7.07,2.16Z"/>
    <path class="cls-3" d="m83.1,208.23c.04.53.25,2.29,1.68,3.6,1.64,1.5,4.21,1.79,6.48.72,19.52-36.88,39.04-73.76,58.56-110.64h2.16l19.68-33.84c3.98-2.19,6.09-6.47,5.28-10.32-1.13-5.37-7.65-8.52-12.75-6.61-3.62,1.36-6.13,5.14-6.21,9.49-5.44,11.6-10.88,23.2-16.32,34.8l.72,1.2-59.28,111.6Z"/>
    <path class="cls-1" d="m158.44,61.84c5.05.65,9.24,4.1,13.03,7.23.99.81,2.41-.59,1.41-1.41-4.27-3.53-8.78-7.08-14.44-7.81-.54-.07-.99.51-1,1,0,.6.47.93,1,1h0Z"/>
    <path class="cls-4" d="m141.31,96.75c2.73,2.59,6.2,4.36,9.92,4.98.53.09,1.08-.14,1.23-.7.13-.48-.16-1.14-.7-1.23-3.39-.57-6.54-2.1-9.03-4.47-.93-.89-2.35.53-1.41,1.41h0Z"/>
  </g>
</svg>