<?xml version="1.0" encoding="UTF-8"?>
<svg id="Layer_2" data-name="Layer 2" xmlns="http://www.w3.org/2000/svg" viewBox="0 0 257.32 257.32">
  <defs>
    <style>
      .cls-1 {
        fill: #fff;
      }

      .cls-2 {
        fill: #231f20;
      }
    </style>
  </defs>
  <g id="Layer_2-2" data-name="Layer 2">
    <path class="cls-2" d="m209.41,0l47.91,47.18c-10.82,2.63-25.82,7.59-41.74,17.42-11.74,7.25-20.71,15.13-27.22,21.78,3.83,2.3,10.01,6.69,15.24,14.15.67.96,8.28,12.04,8.71,23.59.6,16.15-13.02,28.44-25.04,39.56-14.76,13.65-35.48,33.27-62.79,60.61-3.32,2.06-12.7,7.25-24.86,5.81-21.51-2.55-31.21-23.45-31.76-24.68-7.5,7.74-15,15.49-22.5,23.23-.6.12-7.86,1.4-13.25-3.99-4.83-4.83-4.26-11.15-4.17-11.98,44.28-44.04,88.56-88.07,132.83-132.11,9.52-10.14,20.65-23.88,30.85-41.56,8.23-14.26,13.87-27.66,17.78-39.02Z"/>
    <polygon class="cls-2" points="21.23 222.48 33.75 235 27.49 257.32 0 231.73 21.23 222.48"/>
    <path class="cls-1" d="m172.03,101.08l-88.19,88.74c.08,1.17.87,10.54,9.25,16.33,8.65,5.98,18.01,3.07,19.05,2.72,26.31-25.77,52.63-51.54,78.94-77.3,3.5-7.1,2.88-15.49-1.63-21.78-6.19-8.63-16.44-8.72-17.42-8.71Z"/>
    <path class="cls-2" d="m77.3,145.72l9.8-9.25,70.77,70.23c1.72,3.03,1.26,6.82-1.09,9.25-2.52,2.61-6.64,3.1-9.8,1.09-23.23-23.77-46.46-47.54-69.68-71.32Z"/>
    <path class="cls-2" d="m94.91,128.12l9.8-9.25,70.77,70.23c1.72,3.03,1.26,6.82-1.09,9.25-2.52,2.61-6.64,3.1-9.8,1.09-23.23-23.77-46.46-47.54-69.68-71.32Z"/>
    <path class="cls-2" d="m111.63,111.39l9.8-9.25,70.77,70.23c1.72,3.03,1.26,6.82-1.09,9.25-2.52,2.61-6.64,3.1-9.8,1.09-23.23-23.77-46.46-47.54-69.68-71.32Z"/>
    <path class="cls-2" d="m67.87,140.09l12.34-11.9c.34-.11,1.98-.59,3.45.28,1.67,1,2.44,3.36,1.63,5.66-3.99,3.68-7.98,7.35-11.98,11.03-.25.04-2.35.31-3.99-1.27-1.59-1.53-1.47-3.54-1.45-3.81Z"/>
    <path class="cls-2" d="m85.82,122.14l12.34-11.9c.34-.11,1.98-.59,3.45.28,1.67,1,2.44,3.36,1.63,5.66-3.99,3.68-7.98,7.35-11.98,11.03-.25.04-2.35.31-3.99-1.27-1.59-1.53-1.47-3.54-1.45-3.81Z"/>
    <path class="cls-2" d="m103.07,104.89l12.34-11.9c.34-.11,1.98-.59,3.45.28,1.67,1,2.44,3.36,1.63,5.66-3.99,3.68-7.98,7.35-11.98,11.03-.25.04-2.35.31-3.99-1.27-1.59-1.53-1.47-3.54-1.45-3.81Z"/>
  </g>
</svg>